<svg width="272" height="109" viewBox="0 0 272 109" fill="none" xmlns="http://www.w3.org/2000/svg">
<path d="M200.686 52.9759L201.443 53.6752L204.899 53.2938L205.867 52.3988L212.015 6.14011L225.834 4.59473L219.47 52.4477C218.669 58.5119 216.783 62.1797 211.467 62.7714L185.389 65.7057C179.8 66.3268 179.117 62.9475 179.923 56.9029L186.287 9.01569L206.84 6.71718L200.686 52.9759Z" fill="#D3E2E5"/>
<path d="M266.192 0.0850252L230.687 4.05606L223.05 61.4747L241.152 59.455L246.118 22.0725L241.281 22.6153L250.445 12.0617L257.039 20.8645L252.202 21.4074L249.886 38.8516L261.21 37.5703C266.047 37.0323 268.412 33.3107 269.218 27.2465L271.659 8.90249C272.465 2.84323 272.277 -0.594746 266.192 0.0850252Z" fill="#D3E2E5"/>
<path d="M0 109L7.63206 51.5767L34.5754 48.5642C39.2406 48.0458 40.8423 51.3224 40.0361 57.367L38.902 65.9008C38.2893 70.5272 36.1287 73.9896 30.8077 76.2343C35.6826 77.3395 36.9725 80.4156 36.3598 85.0371L34.9355 95.664C34.1347 101.728 31.5924 105.445 26.9326 105.988L0 109ZM18.274 73.9602L23.4498 73.3587L24.4172 72.4638L26.1156 59.7046L25.3578 59.0053L20.1766 59.5823L18.274 73.9602ZM21.2462 96.4123L22.9392 83.6531L22.1814 82.9489L17.0001 83.5308L15.0921 97.8843L20.268 97.3219L21.2462 96.4123Z" fill="#D3E2E5"/>
<path d="M37.9937 104.755L45.6257 47.3311L72.5583 44.3186C77.4976 43.7708 78.8306 47.0768 78.0244 53.1214L76.4119 65.3475C75.681 70.8492 72.9453 73.5096 69.4248 75.2457L74.4126 92.7584L73.3376 100.813L61.2446 102.163L56.2461 80.6937L54.7734 80.8599L51.8066 103.19L37.9937 104.755ZM58.0466 56.1534L56.1386 70.5118L61.3198 69.9298L62.2873 69.0397L63.9857 56.2757L63.2278 55.5764L58.0466 56.1534Z" fill="#D3E2E5"/>
<path d="M76.2886 100.476L83.9206 43.0376L97.739 41.4922L90.1069 98.9158L76.2886 100.476Z" fill="#D3E2E5"/>
<path d="M128.993 85.1591C128.187 91.2233 126.483 94.8716 120.985 95.4829L100.781 97.7422C95.2935 98.3535 94.5088 94.984 95.315 88.9394L100.405 50.6571C101.211 44.5929 103.522 40.8762 108.413 40.3333L128.622 38.074C133.997 37.4724 134.889 40.8322 134.083 46.8768L132.927 55.5671L119.109 57.1124L120.055 50.0164L119.297 49.3171L114.997 49.8061L114.024 50.7011L109.359 85.7949L110.117 86.4942L114.417 86.0052L115.384 85.1102L116.276 78.4103L130.089 76.8698L128.993 85.1591Z" fill="#D3E2E5"/>
<path d="M148.911 69.5778L145.837 92.7047L132.019 94.25L139.656 36.8265L153.469 35.2811L150.491 57.6108L152.217 57.4201L162.353 34.2883L174.962 32.8799L173.818 41.4919L163.477 62.291L169.023 77.5394L167.325 90.3034L154.721 91.7119L150.491 69.4017L148.911 69.5778Z" fill="#D3E2E5"/>
</svg>
