<svg width="334" height="148" viewBox="0 0 334 148" fill="none" xmlns="http://www.w3.org/2000/svg">
<path d="M246.43 71.4921L247.361 72.4358L251.604 71.921L252.792 70.7133L260.343 8.28573L277.311 6.2002L269.496 70.7793C268.513 78.963 266.197 83.9129 259.669 84.7115L227.647 88.6714C220.783 89.5095 219.945 84.9491 220.935 76.7917L228.749 12.1664L253.987 9.06451L246.43 71.4921Z" fill="white"/>
<path d="M326.868 0.114744L283.27 5.47378L273.892 82.9621L296.12 80.2364L302.218 29.7875L296.278 30.52L307.531 16.2777L315.629 28.1573L309.689 28.8899L306.845 52.4314L320.75 50.7022C326.69 49.9763 329.594 44.9538 330.584 36.7701L333.58 12.0142C334.57 3.83703 334.339 -0.802629 326.868 0.114744Z" fill="white"/>
<path d="M0 147.099L9.37172 69.6044L42.4565 65.5389C48.1852 64.8393 50.1519 69.2612 49.1619 77.4186L47.7694 88.9352C47.017 95.1786 44.3639 99.8513 37.8301 102.881C43.8161 104.372 45.4001 108.523 44.6477 114.76L42.8987 129.102C41.9154 137.285 38.7936 142.301 33.0716 143.034L0 147.099ZM22.4393 99.8117L28.7949 98.9999L29.9829 97.7922L32.0684 80.5733L31.1379 79.6295L24.7757 80.4083L22.4393 99.8117ZM26.089 130.111L28.168 112.893L27.2374 111.942L20.8752 112.728L18.5322 132.098L24.8879 131.339L26.089 130.111Z" fill="#1E0802"/>
<path d="M46.6541 141.37L56.0258 63.8753L89.0974 59.8098C95.1626 59.0706 96.7994 63.5321 95.8094 71.6895L93.8294 88.189C92.9319 95.6137 89.5726 99.204 85.2497 101.547L91.3743 125.181L90.0544 136.051L75.2048 137.872L69.067 108.899L67.2586 109.124L63.6155 139.258L46.6541 141.37ZM71.2779 75.7813L68.935 95.1584L75.2972 94.373L76.4852 93.1718L78.5707 75.9463L77.6401 75.0026L71.2779 75.7813Z" fill="#1E0802"/>
<path d="M93.6777 135.595L103.049 58.0807L120.018 55.9951L110.646 133.49L93.6777 135.595Z" fill="#1E0802"/>
<path d="M158.395 114.925C157.405 123.109 155.313 128.032 148.562 128.857L123.753 131.906C117.015 132.731 116.051 128.184 117.041 120.027L123.291 68.3636C124.281 60.1798 127.119 55.164 133.125 54.4314L157.94 51.3823C164.54 50.5705 165.635 55.1046 164.645 63.2619L163.226 74.9898L146.258 77.0753L147.42 67.499L146.489 66.5552L141.21 67.2152L140.015 68.423L134.286 115.783L135.217 116.727L140.497 116.067L141.685 114.859L142.78 105.817L159.742 103.739L158.395 114.925Z" fill="#1E0802"/>
<path d="M182.854 93.898L179.079 125.108L162.111 127.194L171.489 49.6991L188.451 47.6135L184.795 77.7483L186.913 77.4909L199.36 46.2738L214.844 44.373L213.438 55.9953L200.74 84.0643L207.551 104.642L205.465 121.868L189.989 123.769L184.795 93.6604L182.854 93.898Z" fill="#1E0802"/>
</svg>
