<svg width="63" height="40" viewBox="0 0 63 40" fill="none" xmlns="http://www.w3.org/2000/svg">
<path d="M14.3517 32.2651L14.8685 32.6814L17.2257 32.4543L17.8855 31.9216L22.0792 4.38667L31.5039 3.4668L27.1636 31.9507C26.6174 35.5603 25.3307 37.7435 21.7053 38.0958L3.91881 39.8424C0.106377 40.2121 -0.359173 38.2006 0.190696 34.6026L4.531 6.09832L18.549 4.73016L14.3517 32.2651Z" fill="white"/>
<path d="M59.0303 0.783032L34.8141 3.14674L29.605 37.3245L41.9514 36.1223L45.3386 13.8708L42.0394 14.1939L48.2896 7.91201L52.7875 13.1518L49.4883 13.4749L47.9083 23.8583L55.6322 23.0957C58.9314 22.7755 60.5443 20.5602 61.0942 16.9506L62.7585 6.03152C63.3083 2.42482 63.18 0.378406 59.0303 0.783032V0.783032Z" fill="white"/>
</svg>
