<svg width="32" height="32" viewBox="0 0 32 32" fill="none" xmlns="http://www.w3.org/2000/svg">
<path fill-rule="evenodd" clip-rule="evenodd" d="M16.879 2.80352C16.3936 2.32603 15.6064 2.32603 15.121 2.80352L3.57861 14.1562C2.80878 14.9133 2.41377 15.9636 2.49727 17.0312L3.38842 28.4257C3.43824 29.0627 3.97831 29.5546 4.62789 29.5546H12.2706V23.4411C12.2706 21.4153 13.9403 19.773 16 19.773C18.0597 19.773 19.7294 21.4153 19.7294 23.4411V29.5546H27.3721C28.0217 29.5546 28.5618 29.0627 28.6116 28.4257L29.5027 17.0312C29.5862 15.9636 29.1912 14.9133 28.4214 14.1562L16.879 2.80352ZM13.3629 1.07436C14.8193 -0.358121 17.1807 -0.358121 18.6371 1.07436L30.1795 12.427C31.4625 13.689 32.1208 15.4394 31.9817 17.2188L31.0905 28.6132C30.9411 30.5243 29.3209 32 27.3721 32H19.7294C18.3563 32 17.2431 30.9052 17.2431 29.5546V23.4411C17.2431 22.7658 16.6866 22.2184 16 22.2184C15.3134 22.2184 14.7569 22.7658 14.7569 23.4411V29.5546C14.7569 30.9052 13.6437 32 12.2706 32H4.62789C2.67914 32 1.05893 30.5243 0.909473 28.6132L0.0183302 17.2188C-0.120836 15.4394 0.537497 13.689 1.82055 12.427L13.3629 1.07436Z" fill="#FFB715"/>
</svg>
